# xmcd CD database file
#
# Track frame offsets:
#	182
#	17762
#	28737
#	40062
#	53260
#	68150
#	85097
#	101055
#	119212
#	132907
#	146462
#	165327
#	178895
#	192112
#	204362
#	217740
#
# Disc length: 3066 seconds
#
# Revision: 4
# Processed by: cddbd v1.5.2PL0 Copyright (c) Steve Scherf et al.
# Submitted via: CDex 1.51
#
DISCID=d60bf810
DTITLE=Various Artist - The Story of the Blues (The Originals)
DYEAR=2008
DGENRE=Blues
TTITLE0=Johnny Otis - Barrelhouse Blues
TTITLE1=Roy Milton - Information Blues
TTITLE2=Amos Wilburn - Bad Whiskey
TTITLE3=Charles Brown - Big Legged Women
TTITLE4=Pee Wee Crayton - Blues in the Ghetto
TTITLE5=Joe Liggins and the Honeydrippers - Boom Chick-A-Boogie
TTITLE6=Eddie ''Cleanhead'' Vinson - Old Maid's Boogie
TTITLE7=Bishop ''Gatemouth'' Moore - Boogie Woogie Papa
TTITLE8=Lousie Jordan - Beans and Corn Bread
TTITLE9=Ray Charles - Alone in the City
TTITLE10=Richard Berry - Round About Midnight
TTITLE11=Joe Turner - Roll'em Hawk
TTITLE12=Etta James - All I Could Do Was Cry
TTITLE13=Bo Diddley - I'm A Man
TTITLE14=Little Walter Juke - Mean Old World
TTITLE15=Johnny Otis - Please, Don't Leave Me
EXTD=ADD YEAR: 2008
EXTT0=
EXTT1=
EXTT2=
EXTT3=
EXTT4=
EXTT5=
EXTT6=
EXTT7=
EXTT8=
EXTT9=
EXTT10=
EXTT11=
EXTT12=
EXTT13=
EXTT14=
EXTT15=
PLAYORDER=
